<svg width="32" height="32" viewBox="0 0 32 32" fill="none" xmlns="http://www.w3.org/2000/svg">
<circle cx="16" cy="16" r="16" fill="#B4DD13"/>
<path d="M22.1915 8.99707H9.92199C9.64017 8.99707 9.36989 9.10902 9.17061 9.3083C8.97133 9.50758 8.85938 9.77786 8.85938 10.0597V22.3292C8.85938 22.611 8.97133 22.8813 9.17061 23.0806C9.36989 23.2799 9.64017 23.3918 9.92199 23.3918H22.1915C22.4733 23.3918 22.7436 23.2799 22.9429 23.0806C23.1422 22.8813 23.2541 22.611 23.2541 22.3292V10.0597C23.2541 9.77786 23.1422 9.50758 22.9429 9.3083C22.7436 9.10902 22.4733 8.99707 22.1915 8.99707ZM13.1498 21.2596H10.9856V14.3851H13.1498V21.2596ZM12.0662 13.4325C11.8207 13.4311 11.5811 13.357 11.3777 13.2196C11.1743 13.0822 11.0161 12.8876 10.9231 12.6603C10.8302 12.4331 10.8067 12.1835 10.8555 11.9429C10.9043 11.7023 11.0233 11.4815 11.1974 11.3085C11.3716 11.1355 11.5931 11.0179 11.834 10.9706C12.0749 10.9234 12.3244 10.9485 12.551 11.0429C12.7776 11.1373 12.9712 11.2967 13.1073 11.501C13.2434 11.7054 13.3159 11.9454 13.3158 12.1909C13.3181 12.3553 13.2873 12.5184 13.2252 12.6706C13.1631 12.8228 13.071 12.961 12.9544 13.0768C12.8378 13.1927 12.6991 13.2839 12.5465 13.345C12.3939 13.4061 12.2305 13.4358 12.0662 13.4325ZM21.1269 21.2656H18.9637V17.51C18.9637 16.4024 18.4929 16.0605 17.8851 16.0605C17.2433 16.0605 16.6136 16.5443 16.6136 17.538V21.2656H14.4493V14.3901H16.5306V15.3428H16.5586C16.7675 14.9199 17.4992 14.1972 18.6158 14.1972C19.8234 14.1972 21.1279 14.9139 21.1279 17.0132L21.1269 21.2656Z" fill="black"/>
</svg>
