<svg width="136" height="57" viewBox="0 0 136 57" fill="none" xmlns="http://www.w3.org/2000/svg">
<path d="M14.6143 15.5649V26.3549H4.70486V15.5649H0.000244141V41.3216H4.70486V30.882H14.6143V41.3216H19.3189V15.5649H14.6143Z" fill="#3E3E4E"/>
<path d="M34.3755 32.9952C34.3755 34.0274 33.9654 35.0174 33.2355 35.7473C32.5056 36.4772 31.5156 36.8873 30.4834 36.8873C29.4512 36.8873 28.4612 36.4772 27.7313 35.7473C27.0014 35.0174 26.5913 34.0274 26.5913 32.9952V21.9632H22.1287V32.9952C22.1287 35.2089 23.0081 37.3318 24.5734 38.8971C26.1387 40.4624 28.2617 41.3418 30.4753 41.3418C32.689 41.3418 34.812 40.4624 36.3773 38.8971C37.9426 37.3318 38.8219 35.2089 38.8219 32.9952V21.9632H34.3755V32.9952Z" fill="#3E3E4E"/>
<path d="M67.4402 23.1002C67.4402 20.8389 68.9362 20.1221 70.5751 20.1221C71.8959 20.1221 73.6408 21.1271 74.7818 22.3464L77.7046 18.9027C76.2455 16.9296 73.2858 15.565 70.8632 15.565C66.0226 15.565 62.5212 18.4002 62.5212 23.1002C62.5212 31.8202 73.1798 29.0541 73.1798 33.9339C73.1798 35.4391 71.7184 36.7691 70.0449 36.7691C67.4056 36.7691 66.5505 35.4783 65.338 34.1137L62.0948 37.486C64.1694 40.0331 66.728 41.3262 69.7937 41.3262C74.3923 41.3262 78.0919 38.4564 78.0919 33.9708C78.0919 24.2896 67.4333 27.2977 67.4333 23.1002" fill="#3E3E4E"/>
<path d="M133.379 37.2068C130.742 37.2068 129.993 36.0658 129.993 34.3186V26.5851H134.091V22.6665H129.993V17.4963L125.468 19.527V35.2798C125.468 39.309 128.248 41.3398 132.06 41.3398C132.658 41.3507 133.256 41.3028 133.844 41.1968L134.948 37.133C134.451 37.1676 133.879 37.2022 133.379 37.2022" fill="#3E3E4E"/>
<path d="M51.3625 22.0933C49.152 22.0933 47.6099 22.7341 46.1185 24.1978V15.7198H41.649V31.4334C41.649 37.3159 45.9019 41.3451 50.6802 41.3451C55.9818 41.3451 60.645 37.2444 60.645 31.7215C60.645 26.2677 56.353 22.0956 51.3625 22.0956V22.0933ZM51.3349 36.8479C50.3319 36.8479 49.3514 36.5505 48.5175 35.9933C47.6836 35.4361 47.0336 34.6441 46.6498 33.7174C46.2659 32.7908 46.1655 31.7712 46.3612 30.7875C46.5569 29.8038 47.0398 28.9002 47.749 28.191C48.4582 27.4818 49.3618 26.9988 50.3455 26.8031C51.3292 26.6075 52.3489 26.7079 53.2755 27.0917C54.2021 27.4755 54.9941 28.1255 55.5513 28.9595C56.1086 29.7934 56.406 30.7738 56.406 31.7768C56.406 33.1218 55.8717 34.4116 54.9207 35.3626C53.9697 36.3137 52.6798 36.8479 51.3349 36.8479Z" fill="#3E3E4E"/>
<path d="M99.8929 31.4854C99.8929 25.9532 95.239 21.8618 89.9282 21.8618C85.1498 21.8618 80.897 25.891 80.897 31.7735V47.4963H85.3664V39.0068C86.8555 40.4682 88.3999 41.1113 90.6081 41.1113C95.5986 41.1113 99.8906 36.9414 99.8906 31.4854H99.8929ZM95.6608 31.4301C95.6608 32.433 95.3634 33.4135 94.8062 34.2474C94.249 35.0814 93.457 35.7313 92.5303 36.1152C91.6037 36.499 90.5841 36.5994 89.6004 36.4037C88.6167 36.2081 87.7131 35.7251 87.0039 35.0159C86.2947 34.3067 85.8117 33.4031 85.616 32.4194C85.4204 31.4357 85.5208 30.416 85.9046 29.4894C86.2884 28.5628 86.9384 27.7708 87.7723 27.2136C88.6063 26.6564 89.5867 26.3589 90.5897 26.3589C91.9346 26.3589 93.2245 26.8932 94.1755 27.8442C95.1265 28.7953 95.6608 30.0851 95.6608 31.4301Z" fill="#3E3E4E"/>
<path d="M114.287 21.7868V17.3426C114.875 17.0683 115.372 16.6328 115.721 16.0868C116.071 15.5407 116.258 14.9067 116.26 14.2585V14.1547C116.258 13.2489 115.897 12.3808 115.257 11.7403C114.616 11.0997 113.748 10.7388 112.842 10.7363H112.738C111.832 10.7388 110.964 11.0997 110.324 11.7403C109.683 12.3808 109.322 13.2489 109.32 14.1547V14.2585C109.323 14.9067 109.51 15.5407 109.859 16.0868C110.208 16.6328 110.706 17.0683 111.293 17.3426V21.7868C109.605 22.045 108.014 22.7447 106.683 23.8152L94.48 14.3207C94.5669 14.0075 94.6134 13.6845 94.6183 13.3595C94.6193 12.5968 94.394 11.8509 93.971 11.2162C93.548 10.5816 92.9463 10.0866 92.242 9.79385C91.5377 9.50113 90.7624 9.42384 90.0142 9.57174C89.2659 9.71964 88.5784 10.0861 88.0384 10.6248C87.4984 11.1635 87.1303 11.8502 86.9806 12.598C86.831 13.3459 86.9064 14.1214 87.1974 14.8264C87.4885 15.5314 87.982 16.1343 88.6157 16.5588C89.2494 16.9833 89.9947 17.2103 90.7574 17.2112C91.4273 17.2087 92.0848 17.0299 92.6637 16.6926L104.661 26.0327C103.581 27.663 103.017 29.5814 103.044 31.5372C103.07 33.493 103.686 35.3953 104.811 36.9955L101.16 40.6467C100.867 40.5534 100.562 40.5037 100.254 40.4992C99.6273 40.4992 99.0146 40.6851 98.4933 41.0333C97.9721 41.3816 97.5659 41.8766 97.326 42.4557C97.0861 43.0349 97.0234 43.6722 97.1457 44.287C97.2679 44.9018 97.5698 45.4665 98.0131 45.9098C98.4563 46.353 99.0211 46.6549 99.6359 46.7772C100.251 46.8995 100.888 46.8367 101.467 46.5968C102.046 46.3569 102.541 45.9507 102.889 45.4295C103.238 44.9083 103.424 44.2955 103.424 43.6686C103.419 43.3611 103.37 43.0558 103.276 42.7628L106.888 39.1507C108.067 40.0513 109.436 40.6707 110.891 40.9614C112.346 41.2521 113.848 41.2066 115.283 40.8282C116.718 40.4499 118.047 39.7488 119.169 38.7784C120.292 37.808 121.177 36.594 121.759 35.2291C122.341 33.8642 122.603 32.3844 122.525 30.9028C122.448 29.4211 122.033 27.9767 121.312 26.6799C120.591 25.3831 119.584 24.2681 118.366 23.4201C117.149 22.5721 115.754 22.0134 114.287 21.7868ZM112.791 36.4054C111.803 36.4054 110.837 36.1123 110.015 35.5632C109.193 35.0141 108.553 34.2336 108.174 33.3205C107.796 32.4073 107.697 31.4025 107.89 30.4331C108.083 29.4637 108.559 28.5733 109.258 27.8744C109.957 27.1755 110.847 26.6996 111.816 26.5067C112.786 26.3139 113.791 26.4129 114.704 26.7911C115.617 27.1693 116.397 27.8099 116.947 28.6317C117.496 29.4535 117.789 30.4197 117.789 31.4081C117.789 32.7334 117.262 34.0045 116.325 34.9417C115.388 35.8789 114.117 36.4054 112.791 36.4054Z" fill="#3E3E4E"/>
</svg>
