<svg width="161" height="57" viewBox="0 0 161 57" fill="none" xmlns="http://www.w3.org/2000/svg">
<path fill-rule="evenodd" clip-rule="evenodd" d="M20.6948 5.93652C9.26092 5.93652 0 15.1974 0 26.6313C0 35.7888 5.92389 43.5235 14.1501 46.2655C15.1848 46.4466 15.5728 45.8257 15.5728 45.2825C15.5728 44.791 15.547 43.1613 15.547 41.4281C10.3474 42.3852 9.00224 40.1605 8.58834 38.9965C8.35553 38.4015 7.34666 36.5648 6.46713 36.0733C5.74281 35.6853 4.70807 34.7282 6.44126 34.7023C8.07097 34.6764 9.23506 36.2027 9.62308 36.8235C11.4856 39.9536 14.4605 39.0741 15.6504 38.5308C15.8315 37.1857 16.3748 36.2803 16.9697 35.7629C12.3651 35.2455 7.5536 33.4606 7.5536 25.5448C7.5536 23.2943 8.35553 21.4318 9.67482 19.9831C9.46787 19.4657 8.74355 17.3445 9.88177 14.499C9.88177 14.499 11.615 13.9558 15.5728 16.6202C17.2284 16.1546 18.9875 15.9218 20.7465 15.9218C22.5056 15.9218 24.2647 16.1546 25.9202 16.6202C29.8781 13.9299 31.6113 14.499 31.6113 14.499C32.7495 17.3445 32.0252 19.4657 31.8183 19.9831C33.1376 21.4318 33.9395 23.2684 33.9395 25.5448C33.9395 33.4865 29.1021 35.2455 24.4975 35.7629C25.2477 36.4096 25.8944 37.6513 25.8944 39.5914C25.8944 42.3594 25.8685 44.5841 25.8685 45.2825C25.8685 45.8257 26.2565 46.4725 27.2913 46.2655C31.3996 44.8786 34.9695 42.2382 37.4986 38.7161C40.0276 35.194 41.3885 30.9674 41.3896 26.6313C41.3896 15.1974 32.1287 5.93652 20.6948 5.93652Z" fill="#3E3E4E"/>
<path d="M96.4757 36.6202H96.4274C96.4492 36.6202 96.4637 36.6443 96.4854 36.6467H96.4999L96.4757 36.6226V36.6202ZM96.4854 36.6467C96.2608 36.6492 95.6959 36.7675 95.0995 36.7675C93.2163 36.7675 92.5644 35.8983 92.5644 34.7635V27.204H96.4033C96.6206 27.204 96.7896 27.0109 96.7896 26.7453V22.6408C96.7896 22.4235 96.5964 22.2304 96.4033 22.2304H92.5644V17.136C92.5644 16.9429 92.4437 16.8222 92.2264 16.8222H87.0113C86.794 16.8222 86.6733 16.9429 86.6733 17.136V22.3753C86.6733 22.3753 84.0416 23.0271 83.8726 23.0513C83.6794 23.0996 83.5587 23.2686 83.5587 23.4617V26.7453C83.5587 27.0109 83.7519 27.204 83.9692 27.204H86.6491V35.1233C86.6491 41.0144 90.7536 41.618 93.5543 41.618C94.8339 41.618 96.3791 41.2075 96.6206 41.0868C96.7654 41.0385 96.8379 40.8695 96.8379 40.7005V37.0789C96.8412 36.9762 96.8074 36.8757 96.7427 36.7959C96.6779 36.7161 96.5866 36.6623 96.4854 36.6443V36.6467ZM153.697 31.3327C153.697 26.9626 151.934 26.3832 150.075 26.5763C148.627 26.6729 147.468 27.3972 147.468 27.3972V35.8959C147.468 35.8959 148.651 36.7168 150.413 36.765C152.9 36.8375 153.697 35.9442 153.697 31.3327ZM159.564 30.9464C159.564 39.2277 156.884 41.5938 152.2 41.5938C148.24 41.5938 146.116 39.5899 146.116 39.5899C146.116 39.5899 146.019 40.7005 145.898 40.8454C145.826 40.9902 145.705 41.0385 145.56 41.0385H141.987C141.746 41.0385 141.528 40.8454 141.528 40.6281L141.577 13.8042C141.577 13.5869 141.77 13.3937 141.987 13.3937H147.13C147.347 13.3937 147.54 13.5869 147.54 13.8042V22.9064C147.54 22.9064 149.52 21.6268 152.417 21.6268L152.393 21.5785C155.29 21.5785 159.564 22.665 159.564 30.9464ZM138.51 22.2304H133.44C133.174 22.2304 133.03 22.4235 133.03 22.6891V35.8234C133.03 35.8234 131.702 36.765 129.891 36.765C128.08 36.765 127.549 35.9442 127.549 34.1334V22.665C127.549 22.4477 127.356 22.2545 127.139 22.2545H121.972C121.754 22.2545 121.561 22.4477 121.561 22.665V35.0025C121.561 40.3142 124.531 41.6421 128.611 41.6421C131.967 41.6421 134.696 39.783 134.696 39.783C134.696 39.783 134.816 40.7246 134.889 40.8695C134.937 40.9902 135.106 41.0868 135.275 41.0868H138.51C138.776 41.0868 138.921 40.8937 138.921 40.6764L138.969 22.6408C138.969 22.4235 138.776 22.2304 138.51 22.2304ZM81.2892 22.2063H76.1465C75.9292 22.2063 75.7361 22.4235 75.7361 22.6891V40.4108C75.7361 40.8937 76.0499 41.0627 76.4604 41.0627H81.096C81.5789 41.0627 81.6996 40.8454 81.6996 40.4108V22.6167C81.6996 22.3994 81.5065 22.2063 81.2892 22.2063ZM78.7541 14.0456C76.895 14.0456 75.4222 15.5184 75.4222 17.3775C75.4222 19.2366 76.895 20.7093 78.7541 20.7093C80.5649 20.7093 82.0377 19.2366 82.0377 17.3775C82.0377 15.5184 80.5649 14.0456 78.7541 14.0456ZM118.567 13.442H113.473C113.256 13.442 113.063 13.6352 113.063 13.8525V23.7273H105.071V13.8525C105.071 13.6352 104.878 13.442 104.661 13.442H99.5179C99.3006 13.442 99.1074 13.6352 99.1074 13.8525V40.6764C99.1074 40.8937 99.3247 41.0868 99.5179 41.0868H104.661C104.878 41.0868 105.071 40.8937 105.071 40.6764V29.208H113.063L113.014 40.6764C113.014 40.8937 113.207 41.0868 113.425 41.0868H118.567C118.785 41.0868 118.978 40.8937 118.978 40.6764V13.8525C118.978 13.6352 118.785 13.442 118.567 13.442ZM73.0078 25.3208V39.1794C73.0078 39.276 72.9837 39.445 72.863 39.4933C72.863 39.4933 69.845 41.6421 64.8713 41.6421C58.8595 41.6421 51.737 39.7589 51.737 27.3489C51.737 14.9389 57.9661 12.3797 64.0504 12.4038C69.3138 12.4038 71.4385 13.5869 71.7765 13.8042C71.873 13.9249 71.9213 14.0215 71.9213 14.1422L70.9073 18.4398C70.9073 18.6571 70.69 18.9227 70.4244 18.8502C69.5552 18.5847 68.2515 18.0535 65.1852 18.0535C61.636 18.0535 57.8213 19.0675 57.8213 27.0592C57.8213 35.0508 61.4429 35.9924 64.0504 35.9924C66.2717 35.9924 67.0684 35.7269 67.0684 35.7269V30.1737H63.5192C63.2537 30.1737 63.0605 29.9806 63.0605 29.7633V25.3208C63.0605 25.1035 63.2537 24.9104 63.5192 24.9104H72.5491C72.8147 24.9104 73.0078 25.1035 73.0078 25.3208Z" fill="#3E3E4E"/>
</svg>
