<svg width="135" height="57" viewBox="0 0 135 57" fill="none" xmlns="http://www.w3.org/2000/svg">
<path d="M57.2727 30.4572C57.2727 36.7775 52.3283 41.4348 46.2604 41.4348C40.1925 41.4348 35.248 36.7775 35.248 30.4572C35.248 24.0923 40.1925 19.4795 46.2604 19.4795C52.3283 19.4795 57.2727 24.0923 57.2727 30.4572ZM52.452 30.4572C52.452 26.5076 49.5863 23.8052 46.2604 23.8052C42.9344 23.8052 40.0687 26.5076 40.0687 30.4572C40.0687 34.3672 42.9344 37.1091 46.2604 37.1091C49.5863 37.1091 52.452 34.3622 52.452 30.4572Z" fill="#3E3E4E"/>
<path d="M81.0282 30.4572C81.0282 36.7775 76.0838 41.4348 70.0159 41.4348C63.9479 41.4348 59.0035 36.7775 59.0035 30.4572C59.0035 24.0972 63.9479 19.4795 70.0159 19.4795C76.0838 19.4795 81.0282 24.0923 81.0282 30.4572ZM76.2075 30.4572C76.2075 26.5076 73.3418 23.8052 70.0159 23.8052C66.6899 23.8052 63.8242 26.5076 63.8242 30.4572C63.8242 34.3672 66.6899 37.1091 70.0159 37.1091C73.3418 37.1091 76.2075 34.3622 76.2075 30.4572Z" fill="#3E3E4E"/>
<path d="M103.804 20.1427V39.8511C103.804 47.9581 99.0226 51.2692 93.3705 51.2692C88.0499 51.2692 84.8477 47.7106 83.64 44.8004L87.8371 43.0533C88.5844 44.84 90.4157 46.9484 93.3655 46.9484C96.9835 46.9484 99.2255 44.7163 99.2255 40.5143V38.9354H99.0573C97.9783 40.2668 95.8996 41.4299 93.2764 41.4299C87.7876 41.4299 82.759 36.6488 82.759 30.4968C82.759 24.3002 87.7876 19.4795 93.2764 19.4795C95.8946 19.4795 97.9734 20.6426 99.0573 21.9344H99.2255V20.1477H103.804V20.1427ZM99.5671 30.4968C99.5671 26.6313 96.9884 23.8052 93.707 23.8052C90.381 23.8052 87.5946 26.6313 87.5946 30.4968C87.5946 34.3226 90.381 37.1091 93.707 37.1091C96.9884 37.1091 99.5671 34.3226 99.5671 30.4968Z" fill="#3E3E4E"/>
<path d="M111.346 8.58936V40.7602H106.644V8.58936H111.346Z" fill="#3E3E4E"/>
<path d="M129.668 34.0659L133.409 36.5603C132.202 38.3471 129.291 41.4256 124.263 41.4256C118.027 41.4256 113.369 36.6049 113.369 30.4479C113.369 23.9197 118.066 19.4702 123.723 19.4702C129.42 19.4702 132.207 24.0038 133.117 26.4538L133.617 27.701L118.942 33.7788C120.066 35.9813 121.813 37.1048 124.263 37.1048C126.718 37.1048 128.42 35.8971 129.668 34.0659ZM118.15 30.1163L127.96 26.043C127.421 24.672 125.797 23.7168 123.887 23.7168C121.437 23.7168 118.027 25.8796 118.15 30.1163Z" fill="#3E3E4E"/>
<path d="M17.4549 27.6001V22.9427H33.1493C33.3027 23.7544 33.3819 24.7146 33.3819 25.754C33.3819 29.2482 32.4267 33.569 29.3482 36.6475C26.3538 39.7656 22.5279 41.4286 17.4598 41.4286C8.06592 41.4286 0.166748 33.7769 0.166748 24.383C0.166748 14.9891 8.06592 7.3374 17.4598 7.3374C22.6566 7.3374 26.3587 9.37654 29.1403 12.0343L25.8539 15.3207C23.8593 13.4499 21.157 11.9947 17.4549 11.9947C10.595 11.9947 5.22994 17.5232 5.22994 24.383C5.22994 31.2428 10.595 36.7712 17.4549 36.7712C21.9043 36.7712 24.4384 34.9845 26.0618 33.3611C27.3783 32.0446 28.2444 30.1638 28.586 27.5951L17.4549 27.6001Z" fill="#3E3E4E"/>
</svg>
