<svg width="167" height="57" viewBox="0 0 167 57" fill="none" xmlns="http://www.w3.org/2000/svg">
<g clip-path="url(#clip0_200_2239)">
<path d="M25.0173 3.65479C11.247 3.65479 0.083374 14.8181 0.083374 28.5884C0.083374 42.3594 11.247 53.5218 25.0173 53.5218C38.7892 53.5218 49.9516 42.3594 49.9516 28.5884C49.9516 14.819 38.7892 3.65598 25.017 3.65598L25.0173 3.65479ZM36.4519 39.6163C36.0053 40.3487 35.0465 40.581 34.3141 40.1314C28.4598 36.5555 21.0901 35.7456 12.4109 37.7286C11.5745 37.9191 10.7408 37.3951 10.5503 36.5584C10.3588 35.7218 10.8808 34.8881 11.7192 34.6975C21.2172 32.5276 29.3644 33.4619 35.9368 37.4785C36.6692 37.9281 36.9015 38.8838 36.4519 39.6163ZM39.5038 32.8271C38.941 33.7418 37.7441 34.0306 36.83 33.4679C30.1278 29.3483 19.9113 28.1552 11.9839 30.5616C10.9558 30.8721 9.86992 30.2927 9.55788 29.2664C9.24823 28.2383 9.82793 27.1545 10.8543 26.8419C19.9095 24.0943 31.1669 25.4252 38.8636 30.1549C39.7777 30.7176 40.0665 31.9145 39.5038 32.8274V32.8271ZM39.7658 25.7575C31.7297 20.9844 18.4711 20.5455 10.7986 22.8741C9.56651 23.2478 8.26359 22.5523 7.89022 21.3202C7.51685 20.0876 8.21178 18.7855 9.44474 18.411C18.2523 15.7372 32.8938 16.2538 42.1459 21.7463C43.2565 22.404 43.6198 23.8353 42.9618 24.942C42.3067 26.0502 40.8716 26.4155 39.767 25.7575H39.7658ZM67.9204 26.6722C63.6151 25.6455 62.8498 24.925 62.8498 23.411C62.8498 21.9806 64.1956 21.018 66.1995 21.018C68.1408 21.018 70.0642 21.749 72.0829 23.2538C72.1424 23.2993 72.2198 23.3175 72.2943 23.3056C72.3717 23.2943 72.4372 23.2529 72.4819 23.1906L74.5839 20.2275C74.6703 20.1054 74.6465 19.9372 74.5303 19.844C72.1275 17.9167 69.424 16.9797 66.262 16.9797C61.6142 16.9797 58.3658 19.7693 58.3658 23.7605C58.3658 28.0406 61.1676 29.5561 66.0089 30.7259C70.1267 31.6748 70.8234 32.4698 70.8234 33.8907C70.8234 35.4657 69.4181 36.4453 67.1552 36.4453C64.6423 36.4453 62.5908 35.5967 60.2982 33.6138C60.2416 33.5631 60.1642 33.5423 60.0927 33.5453C60.0153 33.5512 59.9468 33.587 59.8992 33.6435L57.5411 36.4483C57.4428 36.5674 57.4547 36.7401 57.5679 36.8413C60.2357 39.2232 63.5168 40.4797 67.0599 40.4797C72.068 40.4797 75.3045 37.7435 75.3045 33.5066C75.3134 29.9316 73.1726 27.9516 67.9294 26.676L67.9204 26.6722ZM86.6366 22.4263C84.4661 22.4263 82.6855 23.2815 81.2147 25.0337V23.0614C81.2147 22.9057 81.0896 22.7789 80.9348 22.7789H77.079C76.9242 22.7789 76.7991 22.9057 76.7991 23.0614V44.9757C76.7991 45.1305 76.9242 45.2585 77.079 45.2585H80.9348C81.0896 45.2585 81.2147 45.1305 81.2147 44.9757V38.0591C82.6855 39.7056 84.4661 40.5125 86.6366 40.5125C90.671 40.5125 94.7561 37.407 94.7561 31.4703C94.762 25.5324 90.677 22.426 86.6396 22.426L86.6366 22.4263ZM90.2721 31.4703C90.2721 34.4921 88.4112 36.6031 85.7434 36.6031C83.1083 36.6031 81.1194 34.3968 81.1194 31.4703C81.1194 28.5435 83.1083 26.3378 85.7434 26.3378C88.3665 26.3375 90.2721 28.4955 90.2721 31.47V31.4703ZM105.222 22.4263C100.026 22.4263 95.956 26.4268 95.956 31.5349C95.956 36.5882 99.9994 40.5452 105.159 40.5452C110.373 40.5452 114.455 36.5584 114.455 31.4703C114.455 26.3994 110.4 22.4269 105.222 22.4269V22.4263ZM105.222 36.6329C102.459 36.6329 100.375 34.4117 100.375 31.4688C100.375 28.5125 102.387 26.3673 105.159 26.3673C107.94 26.3673 110.036 28.5875 110.036 31.5334C110.036 34.4891 108.012 36.6329 105.222 36.6329ZM125.549 22.7789H121.306V18.4419C121.306 18.2865 121.181 18.1597 121.026 18.1597H117.17C117.015 18.1597 116.887 18.2865 116.887 18.4419V22.7789H115.035C114.881 22.7789 114.756 22.9057 114.756 23.0614V26.3744C114.756 26.5298 114.881 26.657 115.035 26.657H116.887V35.2305C116.887 38.6933 118.611 40.45 122.015 40.45C123.396 40.45 124.542 40.1641 125.623 39.5508C125.713 39.5031 125.766 39.4078 125.766 39.3066V36.1505C125.766 36.0553 125.715 35.963 125.632 35.9123C125.549 35.8587 125.445 35.8558 125.358 35.9004C124.617 36.2726 123.899 36.4453 123.095 36.4453C121.86 36.4453 121.306 35.8826 121.306 34.6261V26.6585H125.549C125.704 26.6585 125.829 26.5316 125.829 26.3759V23.0632C125.835 22.9075 125.71 22.7806 125.552 22.7806L125.549 22.7789ZM140.329 22.7958V22.2632C140.329 20.6961 140.93 19.9973 142.276 19.9973C143.08 19.9973 143.726 20.1569 144.45 20.3981C144.539 20.4261 144.631 20.4121 144.703 20.3588C144.777 20.3055 144.819 20.2201 144.819 20.1295V16.8812C144.819 16.757 144.741 16.6471 144.619 16.6105C143.857 16.3833 142.88 16.1502 141.416 16.1502C137.857 16.1502 135.973 18.1552 135.973 21.9464V22.7622H134.121C133.966 22.7622 133.838 22.889 133.838 23.0444V26.3744C133.838 26.5298 133.966 26.657 134.121 26.657H135.973V39.8783C135.973 40.0361 136.101 40.1611 136.256 40.1611H140.108C140.266 40.1611 140.391 40.0361 140.391 39.8783V26.6579H143.991L149.505 39.8783C148.88 41.2658 148.264 41.5427 147.424 41.5427C146.745 41.5427 146.028 41.3402 145.298 40.9382C145.23 40.9025 145.146 40.8966 145.075 40.9174C145 40.9442 144.938 40.9978 144.908 41.0693L143.601 43.9365C143.538 44.0735 143.592 44.2313 143.723 44.3028C145.087 45.0412 146.316 45.3568 147.838 45.3568C150.684 45.3568 152.259 44.0288 153.644 40.4619L160.331 23.1817C160.367 23.0948 160.355 22.9965 160.301 22.9194C160.251 22.8429 160.164 22.7967 160.072 22.7967H156.059C155.936 22.7967 155.829 22.8732 155.791 22.9861L151.679 34.7273L147.177 22.9783C147.135 22.8691 147.031 22.7967 146.915 22.7967H140.329V22.7958ZM131.76 22.7789H127.904C127.749 22.7789 127.621 22.9057 127.621 23.0614V39.8783C127.621 40.0361 127.749 40.1611 127.904 40.1611H131.76C131.915 40.1611 132.043 40.0361 132.043 39.8783V23.0626C132.043 22.9069 131.917 22.7801 131.76 22.7801V22.7789ZM129.854 15.1212C128.327 15.1212 127.088 16.3574 127.088 17.8846C127.088 19.4126 128.327 20.6503 129.854 20.6503C131.382 20.6503 132.617 19.4126 132.617 17.8846C132.617 16.3577 131.379 15.1212 129.854 15.1212ZM163.624 28.1862C162.1 28.1862 160.912 26.961 160.912 25.4731C160.912 23.9853 162.115 22.7461 163.639 22.7461C165.164 22.7461 166.352 23.971 166.352 25.4577C166.352 26.9455 165.149 28.1862 163.624 28.1862ZM163.639 23.0159C162.249 23.0159 161.198 24.1205 161.198 25.4731C161.198 26.8252 162.243 27.9149 163.624 27.9149C165.015 27.9149 166.066 26.8112 166.066 25.4577C166.066 24.1056 165.021 23.0159 163.639 23.0159ZM164.241 25.7366L165.009 26.8109H164.36L163.669 25.8254H163.076V26.8109H162.534V23.9633H163.803C164.467 23.9633 164.902 24.3018 164.902 24.8717C164.905 25.3386 164.634 25.6238 164.244 25.7366H164.241ZM163.782 24.4519H163.076V25.3526H163.782C164.133 25.3526 164.345 25.1802 164.345 24.9018C164.345 24.6088 164.133 24.4519 163.782 24.4519Z" fill="#3E3E4E"/>
</g>
<defs>
<clipPath id="clip0_200_2239">
<rect width="166.223" height="56.9909" fill="white"/>
</clipPath>
</defs>
</svg>
