<svg width="72" height="73" viewBox="0 0 72 73" fill="none" xmlns="http://www.w3.org/2000/svg">
<path d="M60 30.5C60 45.479 43.383 61.079 37.803 65.897C37.2832 66.2879 36.6504 66.4993 36 66.4993C35.3496 66.4993 34.7168 66.2879 34.197 65.897C28.617 61.079 12 45.479 12 30.5C12 24.1348 14.5286 18.0303 19.0294 13.5294C23.5303 9.02856 29.6348 6.5 36 6.5C42.3652 6.5 48.4697 9.02856 52.9706 13.5294C57.4714 18.0303 60 24.1348 60 30.5Z" stroke="#B4DD13" stroke-width="2" stroke-linecap="round" stroke-linejoin="round"/>
<path d="M36 39.5C40.9706 39.5 45 35.4706 45 30.5C45 25.5294 40.9706 21.5 36 21.5C31.0294 21.5 27 25.5294 27 30.5C27 35.4706 31.0294 39.5 36 39.5Z" stroke="#B4DD13" stroke-width="2" stroke-linecap="round" stroke-linejoin="round"/>
</svg>
