<svg width="72" height="73" viewBox="0 0 72 73" fill="none" xmlns="http://www.w3.org/2000/svg">
<path d="M41.496 50.204C42.1156 50.4885 42.8136 50.5536 43.4751 50.3883C44.1365 50.2231 44.722 49.8375 45.135 49.295L46.2 47.9C46.7589 47.1548 47.4836 46.55 48.3167 46.1334C49.1499 45.7169 50.0685 45.5 51 45.5H60C61.5913 45.5 63.1174 46.1321 64.2426 47.2574C65.3679 48.3826 66 49.9087 66 51.5V60.5C66 62.0913 65.3679 63.6174 64.2426 64.7426C63.1174 65.8679 61.5913 66.5 60 66.5C45.6783 66.5 31.9432 60.8107 21.8162 50.6838C11.6893 40.5568 6 26.8217 6 12.5C6 10.9087 6.63214 9.38258 7.75736 8.25736C8.88258 7.13214 10.4087 6.5 12 6.5H21C22.5913 6.5 24.1174 7.13214 25.2426 8.25736C26.3679 9.38258 27 10.9087 27 12.5V21.5C27 22.4315 26.7831 23.3501 26.3666 24.1833C25.95 25.0164 25.3452 25.7411 24.6 26.3L23.196 27.353C22.6452 27.7735 22.2571 28.3718 22.0974 29.0461C21.9377 29.7203 22.0163 30.4291 22.32 31.052C26.42 39.3796 33.1633 46.1144 41.496 50.204Z" stroke="#B4DD13" stroke-width="2" stroke-linecap="round" stroke-linejoin="round"/>
</svg>
