<svg width="33" height="33" viewBox="0 0 33 33" fill="none" xmlns="http://www.w3.org/2000/svg">
<path fill-rule="evenodd" clip-rule="evenodd" d="M9.29738 7.1835C9.37741 8.3706 9.57748 9.53103 9.8976 10.6381L8.29701 12.2387C7.75015 10.6381 7.40336 8.94415 7.28331 7.1835H9.29738ZM22.4482 23.2166C23.582 23.5367 24.7424 23.7368 25.9162 23.8168V25.8042C24.1555 25.6842 22.4616 25.3374 20.8477 24.8039L22.4482 23.2166ZM10.579 4.5166H5.9106C5.177 4.5166 4.57678 5.11682 4.57678 5.85042C4.57678 18.375 14.7271 28.5253 27.2517 28.5253C27.9853 28.5253 28.5855 27.9251 28.5855 27.1915V22.5365C28.5855 21.8029 27.9853 21.2027 27.2517 21.2027C25.5978 21.2027 23.9838 20.9359 22.49 20.4424C22.3566 20.389 22.2099 20.3757 22.0765 20.3757C21.7297 20.3757 21.3962 20.5091 21.1295 20.7625L18.1951 23.6969C14.4204 21.7629 11.3259 18.6818 9.40521 14.9071L12.3396 11.9726C12.7131 11.5992 12.8198 11.079 12.6731 10.6122C12.1796 9.11828 11.9128 7.51769 11.9128 5.85042C11.9128 5.11682 11.3126 4.5166 10.579 4.5166Z" fill="#B4DD13"/>
</svg>
