<svg width="24" height="25" viewBox="0 0 24 25" fill="none" xmlns="http://www.w3.org/2000/svg">
<path fill-rule="evenodd" clip-rule="evenodd" d="M12 2.98926C15.87 2.98926 19 6.11926 19 9.98926C19 15.2393 12 22.9893 12 22.9893C12 22.9893 5 15.2393 5 9.98926C5 6.11926 8.13 2.98926 12 2.98926ZM7 9.98926C7 12.8393 9.92 17.1993 12 19.8693C14.12 17.1793 17 12.8693 17 9.98926C17 7.22926 14.76 4.98926 12 4.98926C9.24 4.98926 7 7.22926 7 9.98926ZM12 12.4893C10.6193 12.4893 9.5 11.37 9.5 9.98926C9.5 8.60855 10.6193 7.48926 12 7.48926C13.3807 7.48926 14.5 8.60855 14.5 9.98926C14.5 11.37 13.3807 12.4893 12 12.4893Z" fill="#B4DD13"/>
</svg>
