<svg width="32" height="32" viewBox="0 0 32 32" fill="none" xmlns="http://www.w3.org/2000/svg">
<g clip-path="url(#clip0_200_2047)">
<path d="M16.5821 0.0813151C16.8063 0.196274 17.0222 0.31996 17.2383 0.449113C17.3182 0.495238 17.3981 0.541205 17.4782 0.587022C17.6395 0.679579 17.8002 0.772947 17.9605 0.867112C18.2212 1.02008 18.4845 1.1684 18.7481 1.31636C18.9227 1.4144 19.0969 1.51309 19.271 1.61195C19.6461 1.82461 20.0222 2.03545 20.3984 2.24599C20.4633 2.28229 20.5282 2.31859 20.595 2.35599C20.7925 2.46648 20.99 2.57694 21.1875 2.68739C22.0081 3.14628 22.8281 3.60604 23.6463 4.06914C24.2806 4.42796 24.9166 4.78378 25.5527 5.13951C25.9438 5.35829 26.3348 5.5773 26.7257 5.79634C27.0558 5.98123 27.3859 6.16592 27.7163 6.35024C28.0418 6.53186 28.3669 6.71414 28.6917 6.89693C28.8125 6.96482 28.9335 7.03249 29.0547 7.09993C29.2204 7.19228 29.3856 7.28543 29.5508 7.3788C29.5993 7.4056 29.6478 7.43241 29.6978 7.46002C30.022 7.64491 30.2525 7.81976 30.375 8.18739C30.4122 8.50189 30.4101 8.80551 30.2309 9.0793C30.0895 9.2236 29.9349 9.31636 29.762 9.42079C29.7261 9.44245 29.6903 9.4641 29.6534 9.48641C29.2937 9.7021 28.9272 9.90534 28.5589 10.106C28.3604 10.2141 28.1624 10.323 27.9644 10.4318C27.9247 10.4535 27.885 10.4753 27.8442 10.4977C27.4831 10.6962 27.124 10.8981 26.7656 11.1015C26.0776 11.4917 25.3877 11.8784 24.6973 12.2645C24.3711 12.447 24.0449 12.6297 23.7188 12.8124C23.3267 13.032 22.9347 13.2515 22.5425 13.4708C21.913 13.823 21.284 14.1759 20.6562 14.5311C19.9645 14.9227 19.271 15.3113 18.5773 15.6993C18.226 15.8958 17.8747 16.0923 17.5234 16.289C17.4586 16.3252 17.3938 16.3615 17.3271 16.3988C17.266 16.433 17.205 16.4671 17.1421 16.5023C17.0843 16.5342 17.0265 16.566 16.967 16.5988C16.8166 16.682 16.8166 16.682 16.6976 16.7677C16.3615 16.9985 16.015 17.0039 15.625 16.9374C15.3424 16.828 15.0907 16.6802 14.832 16.5233C14.7584 16.4803 14.6847 16.4375 14.6109 16.3948C14.4595 16.3071 14.3087 16.2186 14.1582 16.1295C13.8251 15.9329 13.4865 15.7463 13.1484 15.5585C13.0195 15.4863 12.8906 15.414 12.7617 15.3417C12.5014 15.1957 12.241 15.0499 11.9805 14.9042C11.2915 14.5188 10.6033 14.132 9.9162 13.7431C9.28188 13.3843 8.64588 13.0285 8.00983 12.6728C7.61855 12.4539 7.22741 12.2348 6.83624 12.0157C6.5092 11.8325 6.18213 11.6494 5.85498 11.4664C5.10274 11.0457 4.35086 10.6242 3.60132 10.1986C3.36072 10.0621 3.11926 9.92726 2.8772 9.79335C2.75797 9.72678 2.63875 9.66022 2.51953 9.59364C2.46457 9.56362 2.4096 9.5336 2.35297 9.50267C2.0081 9.30898 1.75539 9.14107 1.625 8.74989C1.59012 8.39777 1.59726 8.10591 1.8125 7.81239C2.20888 7.50742 2.65712 7.27221 3.09375 7.03114C3.23308 6.95368 3.3724 6.8762 3.51172 6.79872C3.61783 6.73987 3.61783 6.73987 3.72607 6.67983C4.05748 6.49576 4.38809 6.31029 4.71875 6.12489C4.84895 6.05197 4.97916 5.97905 5.10938 5.90614C5.17383 5.87005 5.23828 5.83396 5.30469 5.79677C5.89063 5.46864 5.89063 5.46864 6.08597 5.35925C6.21608 5.28639 6.34618 5.21353 6.47629 5.14066C6.80332 4.9575 7.13038 4.77441 7.45752 4.59145C8.087 4.23931 8.71604 3.88643 9.34375 3.53114C10.0372 3.13867 10.7323 2.74921 11.4277 2.36028C11.8185 2.14163 12.2093 1.92273 12.6 1.70386C12.934 1.51678 13.2681 1.32979 13.6023 1.14296C13.6704 1.10486 13.7384 1.06676 13.8085 1.02751C13.9425 0.952667 14.0765 0.878016 14.2106 0.803575C14.4827 0.652187 14.7531 0.500587 15.0161 0.333879C15.0546 0.309981 15.0931 0.286083 15.1328 0.26146C15.2278 0.201799 15.3216 0.140264 15.4153 0.0785075C15.8141 -0.0709932 16.1835 -0.0753779 16.5821 0.0813151Z" fill="#B4DD13"/>
<path d="M5.6875 20.875C5.81668 20.9361 5.81668 20.9361 5.9458 21.0122C5.9953 21.041 6.0448 21.0698 6.0958 21.0995C6.14926 21.1311 6.20273 21.1627 6.25781 21.1953C6.37592 21.264 6.49409 21.3326 6.61231 21.4011C6.67511 21.4376 6.73791 21.474 6.80261 21.5116C7.14487 21.7083 7.49049 21.8988 7.83594 22.0898C8.42225 22.4146 9.00694 22.742 9.59009 23.0724C10.2222 23.4304 10.8562 23.785 11.4902 24.1396C11.7515 24.2858 12.0127 24.4321 12.2739 24.5784C12.4033 24.6509 12.5328 24.7232 12.6624 24.7955C12.9987 24.9832 13.3336 25.1728 13.667 25.3657C13.7703 25.4249 13.7703 25.4249 13.8756 25.4854C14.0058 25.5601 14.1356 25.6354 14.265 25.7114C14.9778 26.1185 15.7412 26.3994 16.5641 26.2054C17.0452 26.0605 17.4696 25.8721 17.9062 25.625C17.9709 25.5892 18.0355 25.5534 18.1021 25.5166C18.2978 25.4078 18.4928 25.2979 18.6875 25.1875C18.7433 25.1559 18.7991 25.1242 18.8566 25.0916C19.0684 24.9712 19.2799 24.8503 19.4911 24.7287C19.937 24.4723 20.386 24.2219 20.8359 23.9727C21.3632 23.6806 21.8896 23.387 22.4141 23.0898C22.9081 22.8099 23.4029 22.5312 23.8984 22.2539C23.9624 22.2181 24.0263 22.1823 24.0922 22.1454C24.4002 21.9731 24.7082 21.8009 25.0163 21.6289C25.1255 21.5679 25.2347 21.5069 25.3439 21.4459C25.4817 21.3689 25.6195 21.292 25.7574 21.2151C25.8502 21.1633 25.8502 21.1633 25.9448 21.1104C25.9994 21.0799 26.0539 21.0495 26.1101 21.0181C26.2217 20.9538 26.3303 20.884 26.4375 20.8125C26.6799 20.8338 26.8581 20.9222 27.0674 21.0417C27.1289 21.0766 27.1904 21.1114 27.2538 21.1472C27.3196 21.185 27.3854 21.2228 27.4531 21.2617C27.5931 21.3413 27.7331 21.4208 27.873 21.5002C27.9089 21.5207 27.9448 21.5412 27.9818 21.5623C28.2375 21.708 28.4944 21.8514 28.752 21.9939C28.8223 22.0329 28.8927 22.0719 28.9653 22.1121C29.1005 22.187 29.2358 22.2617 29.3712 22.3362C29.4327 22.3705 29.4942 22.4047 29.5576 22.4399C29.6115 22.4697 29.6654 22.4995 29.7209 22.5302C30.0376 22.725 30.2473 22.8938 30.375 23.25C30.4221 23.5647 30.4104 23.8675 30.2309 24.1419C30.0895 24.2862 29.9349 24.379 29.762 24.4834C29.7261 24.5051 29.6903 24.5267 29.6534 24.549C29.2937 24.7647 28.9272 24.9679 28.5589 25.1686C28.3604 25.2767 28.1624 25.3856 27.9644 25.4944C27.9247 25.5161 27.885 25.5379 27.8442 25.5603C27.4831 25.7588 27.124 25.9607 26.7656 26.1641C26.0776 26.5543 25.3877 26.941 24.6973 27.3271C24.3711 27.5096 24.0449 27.6923 23.7188 27.875C23.3267 28.0946 22.9347 28.3141 22.5425 28.5334C21.913 28.8856 21.284 29.2385 20.6562 29.5938C19.9645 29.9853 19.271 30.3739 18.5773 30.7619C18.226 30.9584 17.8747 31.155 17.5234 31.3516C17.4586 31.3878 17.3938 31.4241 17.3271 31.4614C17.266 31.4956 17.205 31.5297 17.1421 31.5649C17.0843 31.5968 17.0265 31.6286 16.967 31.6614C16.8166 31.7446 16.8166 31.7446 16.6976 31.8303C16.3615 32.0612 16.015 32.0665 15.625 32C15.3424 31.8906 15.0907 31.7428 14.832 31.5859C14.7584 31.5429 14.6847 31.5001 14.6109 31.4574C14.4595 31.3697 14.3087 31.2812 14.1582 31.1921C13.8251 30.9956 13.4865 30.8089 13.1484 30.6211C13.0195 30.5489 12.8906 30.4766 12.7617 30.4043C12.5014 30.2583 12.241 30.1125 11.9805 29.9668C11.2915 29.5814 10.6033 29.1946 9.9162 28.8058C9.28188 28.4469 8.64588 28.0911 8.00983 27.7354C7.61855 27.5165 7.22741 27.2974 6.83624 27.0783C6.5092 26.8951 6.18213 26.712 5.85498 26.5291C5.10274 26.1083 4.35086 25.6868 3.60132 25.2612C3.36072 25.1247 3.11926 24.9899 2.8772 24.856C2.75797 24.7894 2.63875 24.7228 2.51953 24.6562C2.46457 24.6262 2.4096 24.5962 2.35297 24.5653C2.0081 24.3716 1.75539 24.2037 1.625 23.8125C1.59012 23.4604 1.59726 23.1685 1.8125 22.875C2.21102 22.5681 2.66232 22.332 3.10156 22.0898C3.51938 21.8587 3.93635 21.627 4.34815 21.3853C4.41311 21.3474 4.47808 21.3096 4.54501 21.2706C4.66899 21.1983 4.79256 21.1253 4.91568 21.0515C4.97154 21.0191 5.02741 20.9867 5.08496 20.9534C5.1336 20.9246 5.18225 20.8958 5.23236 20.8661C5.41337 20.7981 5.50455 20.8173 5.6875 20.875Z" fill="#0F172A"/>
<path d="M5.82032 13.34C5.90901 13.4061 5.99748 13.4728 6.08231 13.5438C6.29884 13.7112 6.54632 13.8326 6.78516 13.965C6.89944 14.0305 7.01361 14.0963 7.12769 14.1622C7.5282 14.3922 7.9319 14.6163 8.33594 14.84C8.92224 15.1647 9.50695 15.4921 10.0901 15.8225C10.7215 16.1801 11.3549 16.5344 11.9883 16.8886C12.2576 17.0394 12.5269 17.1903 12.7962 17.3412C12.9922 17.4511 13.1884 17.5607 13.3845 17.6703C13.6164 17.7999 13.8477 17.9306 14.0784 18.0624C14.1289 18.091 14.1793 18.1196 14.2313 18.1491C14.3228 18.201 14.4141 18.2532 14.5051 18.306C14.9872 18.5781 15.437 18.7203 15.9922 18.715C16.0376 18.7162 16.0829 18.7175 16.1296 18.7187C16.7781 18.7182 17.3384 18.4085 17.8906 18.0978C17.9495 18.0651 18.0084 18.0325 18.0691 17.9989C18.2548 17.8957 18.44 17.7918 18.625 17.6876C18.7131 17.6381 18.7131 17.6381 18.803 17.5875C19.1 17.4204 19.3967 17.2526 19.6931 17.0843C20.0733 16.8687 20.4545 16.6549 20.8359 16.4415C20.9332 16.3871 20.9332 16.3871 21.0324 16.3316C21.2959 16.1842 21.5594 16.0368 21.8229 15.8895C22.5181 15.5006 23.213 15.1112 23.9063 14.7189C24.4279 14.4237 24.95 14.1294 25.4727 13.8361C25.5385 13.799 25.6043 13.762 25.6721 13.7239C25.7649 13.6718 25.7649 13.6718 25.8596 13.6188C25.914 13.5883 25.9683 13.5578 26.0243 13.5263C26.0782 13.4971 26.132 13.4678 26.1875 13.4376C26.2483 13.3994 26.309 13.3612 26.3716 13.3218C26.5625 13.2501 26.5625 13.2501 26.7486 13.3077C26.8135 13.3454 26.8783 13.3831 26.9451 13.422C26.9809 13.4423 27.0167 13.4625 27.0537 13.4834C27.1708 13.5501 27.2865 13.6188 27.4023 13.6876C27.4831 13.7342 27.564 13.7807 27.6449 13.827C27.8094 13.9213 27.9733 14.0164 28.137 14.1121C28.3558 14.2396 28.5767 14.3629 28.7986 14.485C28.8632 14.5207 28.9278 14.5564 28.9944 14.5931C29.1144 14.6594 29.2346 14.7255 29.3548 14.7914C30.1947 15.2621 30.1947 15.2621 30.375 15.6876C30.4188 15.9962 30.4097 16.2432 30.2695 16.5236C30.0273 16.7985 29.7564 16.978 29.436 17.1522C29.4002 17.1718 29.3643 17.1915 29.3273 17.2117C29.2505 17.2537 29.1736 17.2956 29.0966 17.3373C28.8914 17.4487 28.6867 17.561 28.4819 17.6732C28.4201 17.707 28.4201 17.707 28.3571 17.7415C27.9915 17.9417 27.6281 18.1459 27.2656 18.3517C26.5776 18.7419 25.8877 19.1286 25.1973 19.5147C24.8711 19.6972 24.5449 19.8799 24.2188 20.0626C23.8267 20.2822 23.4347 20.5017 23.0425 20.7211C22.413 21.0732 21.784 21.4261 21.1563 21.7814C20.3285 22.2499 19.4983 22.7141 18.6681 23.1783C18.4623 23.2934 18.2565 23.4084 18.0508 23.5236C17.9856 23.56 17.9203 23.5965 17.8532 23.6341C17.4309 23.8704 17.0105 24.1095 16.5923 24.3529C16.3138 24.5053 16.0619 24.5558 15.75 24.5001C15.4445 24.3807 15.1609 24.2221 14.875 24.0626C14.8238 24.0341 14.7726 24.0056 14.7199 23.9762C14.4206 23.809 14.1223 23.6401 13.8245 23.4703C13.4387 23.2505 13.0516 23.0332 12.6641 22.8165C12.5992 22.7802 12.5343 22.7439 12.4675 22.7065C12.3358 22.6328 12.204 22.5592 12.0723 22.4855C11.681 22.2666 11.2899 22.0475 10.8987 21.8284C10.5717 21.6452 10.2446 21.4621 9.91749 21.2792C9.22865 20.8938 8.5406 20.5072 7.8537 20.1184C7.21938 19.7595 6.58339 19.4037 5.94733 19.048C5.55664 18.8294 5.16607 18.6107 4.77553 18.3919C4.43849 18.203 4.10131 18.0145 3.76392 17.8263C3.69423 17.7874 3.62454 17.7485 3.55274 17.7084C3.42054 17.6346 3.2883 17.5608 3.15601 17.4872C2.86232 17.3231 2.56962 17.1574 2.2793 16.9874C2.23004 16.9586 2.18077 16.9299 2.13001 16.9002C1.9035 16.7476 1.74755 16.5577 1.625 16.3126C1.59103 16.0029 1.58973 15.7582 1.73047 15.4767C1.97266 15.2018 2.24357 15.0222 2.56397 14.848C2.61783 14.8185 2.61783 14.8185 2.67278 14.7884C2.82981 14.7024 2.9873 14.6173 3.14485 14.5323C3.26829 14.4656 3.39163 14.3988 3.5149 14.3319C3.55593 14.3096 3.59696 14.2873 3.63924 14.2644C3.90351 14.1194 4.1589 13.9655 4.41285 13.8031C5.43485 13.1562 5.43485 13.1562 5.82032 13.34ZM7.0625 16.4376C6.8857 16.636 6.81764 16.8333 6.78516 17.0978C6.82624 17.4206 6.91799 17.6136 7.16016 17.8321C7.44023 18.026 7.66454 18.0397 8 18.0001C8.27523 17.8703 8.44877 17.7057 8.58521 17.4369C8.66207 17.1969 8.64153 16.9872 8.5625 16.7501C8.41441 16.4975 8.25841 16.3452 7.99219 16.2228C7.61476 16.1489 7.37035 16.2231 7.0625 16.4376ZM23.5703 16.5392C23.4056 16.8008 23.3481 17.0043 23.375 17.3126C23.4567 17.5699 23.5947 17.7226 23.793 17.9025C24.0603 18.0285 24.2719 18.0522 24.5625 18.0001C24.8824 17.8343 25.0736 17.6544 25.1875 17.3126C25.2164 17.0124 25.189 16.7956 25.0254 16.5362C24.8662 16.3575 24.6638 16.2588 24.4375 16.1876C24.0623 16.1876 23.8411 16.2919 23.5703 16.5392ZM11.1875 18.6876C10.9582 18.911 10.8199 19.0992 10.793 19.422C10.798 19.7705 10.9695 19.9587 11.1953 20.2111C11.4615 20.3615 11.7012 20.3605 12 20.3126C12.2433 20.1888 12.434 20.0562 12.5625 19.8126C12.6489 19.4362 12.6365 19.2201 12.4375 18.8751C12.072 18.4887 11.6431 18.4125 11.1875 18.6876ZM19.5664 18.8556C19.4147 19.0992 19.3562 19.2767 19.375 19.5626C19.4731 19.8895 19.5916 20.0612 19.875 20.2501C20.1101 20.3677 20.3697 20.3535 20.625 20.3126C20.8907 20.164 21.0719 19.9696 21.1875 19.6876C21.2162 19.3906 21.2201 19.2503 21.082 18.9845C20.8901 18.7562 20.7356 18.5995 20.4492 18.504C20.0815 18.4968 19.8363 18.6087 19.5664 18.8556ZM15.4375 20.8751C15.1647 21.1694 15.0928 21.3748 15.0945 21.7699C15.1478 22.0628 15.3373 22.2529 15.5625 22.4376C15.8578 22.536 16.1319 22.5496 16.418 22.4298C16.7503 22.1659 16.7503 22.1659 16.9033 21.7875C16.9183 21.4328 16.8657 21.2117 16.625 20.9376C16.4453 20.7515 16.2626 20.7067 16.0056 20.6837C15.7826 20.6904 15.6285 20.7649 15.4375 20.8751Z" fill="#0F172A"/>
</g>
<defs>
<clipPath id="clip0_200_2047">
<rect width="32" height="32" fill="white"/>
</clipPath>
</defs>
</svg>
