<svg width="158" height="57" viewBox="0 0 158 57" fill="none" xmlns="http://www.w3.org/2000/svg">
<g clip-path="url(#clip0_200_2206)">
<path d="M17.3759 7.12402H-0.000366211V48.6799L17.3759 7.12402Z" fill="#3E3E4E"/>
<path d="M29.6082 7.12402H46.9618V48.6799L29.6082 7.12402Z" fill="#3E3E4E"/>
<path d="M23.4942 22.4385L34.5539 48.6783H27.2977L23.9923 40.3241H15.8984L23.4942 22.4385Z" fill="#3E3E4E"/>
<path d="M75.3042 33.5499L77.3531 39.425C77.421 39.5722 77.5229 39.6401 77.704 39.6401H81.6434C81.8585 39.6401 81.8925 39.5382 81.8585 39.3231L73.7194 16.717C73.6854 16.5359 73.6515 16.502 73.4703 16.502H68.5801C68.4443 16.502 68.365 16.6038 68.365 16.751C68.2971 17.9396 68.1952 18.3018 68.048 18.6528L60.7919 39.2892C60.7579 39.5382 60.8372 39.6401 61.041 39.6401H64.5615C64.7766 39.6401 64.8784 39.5722 64.9577 39.3571L66.8934 33.5499H75.3042ZM68.0141 29.7124C69.0782 26.4975 70.4819 22.3771 71.0479 20.0225H71.0818C71.7837 22.4903 73.4364 27.3805 74.1835 29.7124H68.0141Z" fill="#3E3E4E"/>
<path d="M92.3261 39.9878C94.4429 39.9878 96.6956 39.6029 98.9822 38.6181C99.1634 38.5501 99.1973 38.4709 99.1973 38.3011C99.1294 37.6672 99.0502 36.7502 99.0502 36.0484V14.7668C99.0502 14.6309 99.0502 14.563 98.8804 14.563H95.0429C94.8957 14.563 94.8278 14.6309 94.8278 14.812V22.0229C94.2278 21.955 93.809 21.921 93.3109 21.921C87.1188 21.921 83.3153 26.0075 83.3153 31.1129C83.3153 37.0332 87.2207 39.9878 92.3261 39.9878ZM94.8278 36.0484C94.1939 36.2522 93.492 36.3314 92.7789 36.3314C89.9715 36.3314 87.6735 34.7466 87.6735 30.8978C87.6735 27.4905 90.0394 25.4755 93.1751 25.4755C93.809 25.4755 94.3637 25.5434 94.8278 25.7245V36.0484Z" fill="#3E3E4E"/>
<path d="M111.436 21.9282C106.15 21.9282 102.878 25.9808 102.878 30.9843C102.878 35.4557 105.482 39.995 111.357 39.995C116.326 39.995 119.813 36.3386 119.813 30.871C119.813 26.0487 116.858 21.9282 111.436 21.9282ZM111.221 25.4827C114.21 25.4827 115.477 28.0524 115.477 30.9843C115.477 34.6067 113.61 36.4065 111.436 36.4065C108.753 36.4065 107.168 34.1539 107.168 30.905C107.168 27.5656 108.855 25.4827 111.221 25.4827Z" fill="#3E3E4E"/>
<path d="M123.784 14.563C123.637 14.563 123.535 14.6309 123.535 14.812V38.9011C123.535 39.0029 123.637 39.1841 123.784 39.218C125.471 39.7387 127.237 39.9878 129.06 39.9878C134.278 39.9878 139.349 36.7502 139.349 30.2299C139.349 25.5095 136.112 21.921 131.041 21.921C129.875 21.921 128.788 22.1021 127.837 22.4191L127.792 14.846C127.792 14.5969 127.724 14.563 127.475 14.563H123.784ZM135.014 30.6601C135.014 34.5655 132.342 36.3993 129.456 36.3993C128.856 36.3993 128.324 36.3654 127.837 36.2182V25.9396C128.392 25.7245 129.06 25.5434 130.293 25.5434C133.078 25.5434 135.014 27.3093 135.014 30.6601Z" fill="#3E3E4E"/>
<path d="M153.662 31.9351C155.382 31.9351 156.797 31.9012 157.284 31.788C157.465 31.754 157.533 31.6861 157.567 31.5389C157.669 31.154 157.714 30.3503 157.714 29.3655C157.714 26.0148 155.699 21.9282 150.492 21.9282C145.172 21.9282 142.217 26.2638 142.217 31.154C142.217 35.4896 144.504 39.995 150.911 39.995C153.311 39.995 154.862 39.6101 156.197 38.9762C156.333 38.9083 156.401 38.7951 156.401 38.5913V35.6594C156.401 35.4896 156.299 35.4557 156.197 35.5236C154.862 36.0896 153.413 36.3726 151.828 36.3726C148.239 36.3726 146.609 34.3916 146.507 31.9351H153.662ZM146.507 28.9014C146.79 27.1807 147.877 25.3129 150.311 25.3129C152.994 25.3129 153.696 27.5656 153.696 28.5844C153.696 28.6184 153.696 28.7655 153.696 28.8674C153.548 28.9014 153.096 28.9014 151.76 28.9014H146.507Z" fill="#3E3E4E"/>
</g>
<defs>
<clipPath id="clip0_200_2206">
<rect width="157.912" height="56.9909" fill="white"/>
</clipPath>
</defs>
</svg>
