<svg width="95" height="57" viewBox="0 0 95 57" fill="none" xmlns="http://www.w3.org/2000/svg">
<g clip-path="url(#clip0_200_2221)">
<path fill-rule="evenodd" clip-rule="evenodd" d="M94.1602 30.6523C94.1602 23.9564 90.9169 18.673 84.7181 18.673C78.493 18.673 74.7266 23.9564 74.7266 30.6C74.7266 38.4728 79.1731 42.4485 85.555 42.4485C88.6676 42.4485 91.0216 41.7423 92.8002 40.7483V35.5172C91.0216 36.4065 88.9814 36.9558 86.392 36.9558C83.8549 36.9558 81.6055 36.0665 81.3178 32.9801H94.1079C94.1079 32.6401 94.1602 31.28 94.1602 30.6523ZM81.2394 28.1675C81.2394 25.2119 83.0441 23.9826 84.6919 23.9826C86.2874 23.9826 87.9875 25.2119 87.9875 28.1675H81.2394Z" fill="#3E3E4E"/>
<path fill-rule="evenodd" clip-rule="evenodd" d="M64.6303 18.673C62.0671 18.673 60.4193 19.8761 59.5038 20.7131L59.1638 19.0914H53.4095V49.5889L59.9485 48.2027L59.9746 40.8006C60.9162 41.4807 62.3025 42.4484 64.6042 42.4484C69.286 42.4484 73.5494 38.682 73.5494 30.3907C73.5232 22.8055 69.2076 18.673 64.6303 18.673ZM63.061 36.6942C61.5178 36.6942 60.6023 36.1449 59.9746 35.4649L59.9485 25.7611C60.6285 25.0026 61.5701 24.4795 63.061 24.4795C65.4411 24.4795 67.089 27.1474 67.089 30.5738C67.089 34.0786 65.4673 36.6942 63.061 36.6942Z" fill="#3E3E4E"/>
<path fill-rule="evenodd" clip-rule="evenodd" d="M44.4119 17.1297L50.9769 15.7173V10.4077L44.4119 11.794V17.1297Z" fill="#3E3E4E"/>
<path d="M50.9769 19.1176H44.4119V42.0038H50.9769V19.1176Z" fill="#3E3E4E"/>
<path fill-rule="evenodd" clip-rule="evenodd" d="M37.3757 21.0531L36.9572 19.1176H31.3076V42.0038H37.8465V26.4935C39.3897 24.4795 42.0053 24.8456 42.8161 25.1334V19.1176C41.9791 18.8037 38.9189 18.2283 37.3757 21.0531Z" fill="#3E3E4E"/>
<path fill-rule="evenodd" clip-rule="evenodd" d="M24.2981 13.4417L17.9161 14.8018L17.89 35.7525C17.89 39.6235 20.7932 42.4745 24.6643 42.4745C26.809 42.4745 28.3784 42.0822 29.2415 41.6114V36.3018C28.4045 36.6418 24.2719 37.845 24.2719 33.9739V24.6887H29.2415V19.1175H24.2719L24.2981 13.4417Z" fill="#3E3E4E"/>
<path fill-rule="evenodd" clip-rule="evenodd" d="M6.61714 25.7612C6.61714 24.7411 7.45412 24.3488 8.84037 24.3488C10.8282 24.3488 13.3391 24.9503 15.327 26.0227V19.8761C13.1561 19.013 11.0113 18.673 8.84037 18.673C3.53077 18.673 -0.000244141 21.4455 -0.000244141 26.075C-0.000244141 33.294 9.9389 32.1431 9.9389 35.2557C9.9389 36.4588 8.89268 36.8512 7.42796 36.8512C5.25704 36.8512 2.48454 35.9619 0.287468 34.7587V40.9837C2.71994 42.03 5.17858 42.4746 7.42796 42.4746C12.8683 42.4746 16.6086 39.7806 16.6086 35.0987C16.5824 27.3043 6.61714 28.6906 6.61714 25.7612Z" fill="#3E3E4E"/>
</g>
<defs>
<clipPath id="clip0_200_2221">
<rect width="94.9848" height="56.9909" fill="white"/>
</clipPath>
</defs>
</svg>
